<svg width="14" height="14" viewBox="0 0 14 14" fill="none" xmlns="http://www.w3.org/2000/svg">
<path d="M6.9986 0.450684C5.26126 0.450684 3.59507 1.14084 2.36658 2.36933C1.1381 3.59782 0.447937 5.26401 0.447937 7.00135C0.447937 8.73869 1.1381 10.4049 2.36658 11.6334C3.59507 12.8619 5.26126 13.552 6.9986 13.552C8.73595 13.552 10.4021 12.8619 11.6306 11.6334C12.8591 10.4049 13.5493 8.73869 13.5493 7.00135C13.5493 5.26401 12.8591 3.59782 11.6306 2.36933C10.4021 1.14084 8.73595 0.450684 6.9986 0.450684ZM6.9986 11.2556C5.86993 11.2556 4.78749 10.8072 3.98939 10.0091C3.1913 9.21105 2.74294 8.12861 2.74294 6.99993C2.74294 5.87126 3.1913 4.78882 3.98939 3.99072C4.78749 3.19263 5.86993 2.74427 6.9986 2.74427C8.12728 2.74427 9.20972 3.19263 10.0078 3.99072C10.8059 4.78882 11.2543 5.87126 11.2543 6.99993C11.2543 8.12861 10.8059 9.21105 10.0078 10.0091C9.20972 10.8072 8.12728 11.2556 6.9986 11.2556Z" fill="black"/>
</svg>
