<svg width="26" height="26" viewBox="0 0 26 26" fill="none" xmlns="http://www.w3.org/2000/svg">
<path d="M25.0884 4.65749C24.7605 3.81058 24.2593 3.04147 23.617 2.39941C22.9747 1.75734 22.2054 1.25646 21.3583 0.928824C20.3671 0.556747 19.32 0.355557 18.2615 0.333824C16.8973 0.274324 16.4652 0.257324 13.0057 0.257324C9.54617 0.257324 9.10275 0.257324 7.74984 0.333824C6.69214 0.354446 5.64574 0.555676 4.65584 0.928824C3.80858 1.25608 3.03909 1.75682 2.39673 2.39894C1.75437 3.04106 1.25333 3.81036 0.925755 4.65749C0.553603 5.64861 0.352875 6.69584 0.332171 7.75432C0.271255 9.11716 0.252838 9.54924 0.252838 13.0102C0.252838 16.4697 0.252838 16.9102 0.332171 18.266C0.353421 19.3257 0.553171 20.3712 0.925755 21.3642C1.25425 22.2111 1.75577 22.9801 2.39829 23.6221C3.0408 24.2641 3.81018 24.7651 4.65726 25.0929C5.64529 25.4799 6.69211 25.6955 7.75267 25.7304C9.11692 25.7899 9.54901 25.8083 13.0085 25.8083C16.468 25.8083 16.9114 25.8083 18.2643 25.7304C19.3227 25.7089 20.3698 25.5082 21.3612 25.1368C22.208 24.8084 22.9771 24.3071 23.6193 23.6649C24.2615 23.0226 24.7629 22.2536 25.0913 21.4067C25.4638 20.4151 25.6636 19.3696 25.6848 18.3099C25.7458 16.9471 25.7642 16.515 25.7642 13.0541C25.7642 9.59316 25.7642 9.15399 25.6848 7.79824C25.6683 6.72479 25.4666 5.66226 25.0884 4.65749ZM23.3629 18.1612C23.3538 18.9776 23.2048 19.7864 22.9223 20.5525C22.7096 21.1034 22.3839 21.6037 21.9662 22.0211C21.5485 22.4386 21.048 22.764 20.497 22.9764C19.7394 23.2575 18.9392 23.4066 18.1312 23.417C16.7853 23.4793 16.4057 23.4949 12.9547 23.4949C9.50084 23.4949 9.14809 23.4949 7.77675 23.417C6.96915 23.4071 6.1693 23.2581 5.41234 22.9764C4.85939 22.7653 4.35692 22.4405 3.93743 22.0229C3.51794 21.6054 3.19077 21.1044 2.97709 20.5525C2.69864 19.7946 2.5497 18.9953 2.5365 18.1881C2.47559 16.8422 2.46142 16.4626 2.46142 13.0116C2.46142 9.55916 2.46142 9.20641 2.5365 7.83366C2.54566 7.01769 2.69468 6.20934 2.97709 5.44374C3.40917 4.32599 4.29459 3.44624 5.41234 3.01841C6.16967 2.73811 6.96929 2.58911 7.77675 2.57782C9.12401 2.51691 9.50226 2.49991 12.9547 2.49991C16.4071 2.49991 16.7613 2.49991 18.1312 2.57782C18.9393 2.58755 19.7396 2.73659 20.497 3.01841C21.048 3.23129 21.5484 3.55703 21.966 3.9747C22.3837 4.39237 22.7095 4.89276 22.9223 5.44374C23.2008 6.20159 23.3497 7.00089 23.3629 7.80816C23.4238 9.15541 23.4394 9.53366 23.4394 12.9861C23.4394 16.4371 23.4394 16.8082 23.3785 18.1626H23.3629V18.1612Z" fill="black"/>
</svg>
